<?xml version="1.0" encoding="UTF-8"?>
<svg width="36px" height="36px" viewBox="0 0 36 36" version="1.1" xmlns="http://www.w3.org/2000/svg" xmlns:xlink="http://www.w3.org/1999/xlink">
    <title>切片</title>
    <g id="交易商详情" stroke="none" stroke-width="1" fill="none" fill-rule="evenodd">
        <g id="交易商详情-评论详情" transform="translate(-244.000000, -1106.000000)" fill="#333333">
            <g id="4.数据展示/8.评论/评论+星星" transform="translate(0.000000, 880.000000)">
                <g id="编组-3" transform="translate(0.000000, 74.000000)">
                    <g id="4.数据展示/8.评论/点赞评论样式" transform="translate(120.000000, 152.000000)">
                        <g id="0.icon/36/comment" transform="translate(124.000000, 0.000000)">
                            <path d="M30.5039042,16.0405497 L23.2700899,16.0405497 C26.3614174,4.62360322 21.1401704,4.0404541 21.1401704,4.0404541 C18.4745674,3.69161635 18.4745674,5.70292876 18.4745674,6.08204609 C18.4745674,11.6654558 12.5441521,16.0405497 12.5441521,16.0405497 L12.5441521,31.8741716 C12.5441521,33.4371052 14.6741051,34 15.509628,34 L27.4962766,34 C28.6243801,34 29.5430327,31.0415326 29.5430327,31.0415326 C32.5085422,20.9577811 32.5085422,17.9574638 32.5085422,17.9574638 C32.5085422,15.8740889 30.5039042,16.0405497 30.5039042,16.0405497 Z M9.27026774,16.0458096 L4.49320673,16.0458096 C3.50664853,16.0458096 3.49145782,17.014801 3.49145782,17.014801 L4.47801602,32.9835969 C4.47801602,33.9999665 5.49612932,33.9999665 5.49612932,33.9999665 L9.63072029,33.9999665 C10.4920641,33.9999665 10.4844866,33.327618 10.4844866,33.327618 L10.4844866,17.2567459 C10.4844866,16.0302884 9.27026774,16.0458096 9.27026774,16.0458096 Z" id="形状备份" transform="translate(18.000000, 19.000000) rotate(-180.000000) translate(-18.000000, -19.000000) "></path>
                        </g>
                    </g>
                </g>
            </g>
        </g>
    </g>
</svg>