<?xml version="1.0" encoding="UTF-8"?>
<svg width="36px" height="36px" viewBox="0 0 36 36" version="1.1" xmlns="http://www.w3.org/2000/svg" xmlns:xlink="http://www.w3.org/1999/xlink">
    <title>切片</title>
    <g id="交易商详情" stroke="none" stroke-width="1" fill="none" fill-rule="evenodd">
        <g id="交易商详情-评论详情" transform="translate(-120.000000, -1106.000000)" fill="#333333">
            <g id="4.数据展示/8.评论/评论+星星" transform="translate(0.000000, 880.000000)">
                <g id="编组-3" transform="translate(0.000000, 74.000000)">
                    <g id="0.icon/36/comment" transform="translate(120.000000, 152.000000)">
                        <path d="M30.5039042,13.0405497 L23.2700899,13.0405497 C26.3614174,1.62360322 21.1401704,1.0404541 21.1401704,1.0404541 C18.4745674,0.691616348 18.4745674,2.70292876 18.4745674,3.08204609 C18.4745674,8.66545579 12.5441521,13.0405497 12.5441521,13.0405497 L12.5441521,28.8741716 C12.5441521,30.4371052 14.6741051,31 15.509628,31 L27.4962766,31 C28.6243801,31 29.5430327,28.0415326 29.5430327,28.0415326 C32.5085422,17.9577811 32.5085422,14.9574638 32.5085422,14.9574638 C32.5085422,12.8740889 30.5039042,13.0405497 30.5039042,13.0405497 Z M9.27026774,13.0458096 L4.49320673,13.0458096 C3.50664853,13.0458096 3.49145782,14.014801 3.49145782,14.014801 L4.47801602,29.9835969 C4.47801602,30.9999665 5.49612932,30.9999665 5.49612932,30.9999665 L9.63072029,30.9999665 C10.4920641,30.9999665 10.4844866,30.327618 10.4844866,30.327618 L10.4844866,14.2567459 C10.4844866,13.0302884 9.27026774,13.0458096 9.27026774,13.0458096 Z" id="形状"></path>
                    </g>
                </g>
            </g>
        </g>
    </g>
</svg>