<svg width="56" height="56" xmlns="http://www.w3.org/2000/svg">
    <path d="M49.235 5.135a3.255 3.255 0 0 1 3.26 3.265v29.4a3.263 3.263 0 0 1-3.265 3.265h-20.5l-14.7 9.8v-9.8H6.765A3.263 3.263 0 0 1 3.5 37.8V8.4a3.263 3.263 0 0 1 3.265-3.265zm-20.52 24.289a2.158 2.158 0 0 0-1.587.623c-.436.399-.674.97-.65 1.56a2.132 2.132 0 0 0 .65 1.56c.417.426.99.661 1.586.65.59.004 1.157-.22 1.586-.624v.026c.44-.42.685-1.004.676-1.612a2.002 2.002 0 0 0-.65-1.56 2.184 2.184 0 0 0-1.612-.623zm5.432-16.273a6.889 6.889 0 0 0-4.887-1.482 7.149 7.149 0 0 0-5.329 1.95 7.123 7.123 0 0 0-1.924 5.199h3.12a5.199 5.199 0 0 1 .832-3.12 3.405 3.405 0 0 1 2.989-1.326 3.535 3.535 0 0 1 2.6.91c.62.644.972 1.498.987 2.392a3.613 3.613 0 0 1-.858 2.235l-.52.572a15.805 15.805 0 0 0-3.43 3.848 6.083 6.083 0 0 0-.625 2.911v.52h3.25v-.52a4.107 4.107 0 0 1 .494-2.028 4.731 4.731 0 0 1 1.273-1.585 31.35 31.35 0 0 0 2.6-2.392v.026a5.927 5.927 0 0 0 1.274-3.717 5.485 5.485 0 0 0-1.846-4.393z" fill="#60C86D" fill-rule="nonzero"/>
</svg>
